<?xml version="1.0" standalone="no"?>
<!DOCTYPE svg PUBLIC "-//W3C//DTD SVG 20010904//EN"
 "http://www.w3.org/TR/2001/REC-SVG-20010904/DTD/svg10.dtd">
<svg version="1.0" xmlns="http://www.w3.org/2000/svg"
 width="497.000000pt" height="164.000000pt" viewBox="0 0 497.000000 164.000000"
 preserveAspectRatio="xMidYMid meet">

<g transform="translate(0.000000,164.000000) scale(0.100000,-0.100000)"
fill="#000000" stroke="none">
<path d="M1602 1208 c-29 -29 7 -86 46 -74 34 11 46 33 34 61 -13 27 -58 35
-80 13z"/>
<path d="M2080 1095 l0 -95 40 0 40 0 0 95 0 95 -40 0 -40 0 0 -95z"/>
<path d="M3470 1095 l0 -95 44 0 c24 0 58 8 75 18 30 16 32 16 62 0 17 -10 51
-18 76 -18 l45 0 -19 33 c-38 66 -128 84 -179 36 l-24 -22 0 71 0 72 -40 0
-40 0 0 -95z"/>
<path d="M1250 1085 l0 -85 40 0 40 0 0 51 0 50 53 -3 c51 -3 52 -4 55 -36 2
-18 -2 -40 -9 -48 -10 -12 -4 -14 39 -14 53 0 62 8 62 56 0 41 -29 85 -65 100
-21 9 -69 14 -125 14 l-90 0 0 -85z"/>
<path d="M2520 1085 l0 -85 119 0 c117 0 120 1 140 26 36 46 24 102 -29 129
-20 10 -59 15 -130 15 l-100 0 0 -85z m174 12 c12 -9 17 -23 14 -42 -3 -29 -6
-30 -55 -33 l-53 -3 0 45 0 46 38 0 c21 0 46 -6 56 -13z"/>
<path d="M1824 1086 c-30 -13 -74 -59 -74 -77 0 -15 81 -10 96 6 9 8 26 15 38
15 13 0 29 -7 36 -15 12 -14 100 -22 100 -9 0 3 -10 19 -21 36 -38 53 -112 71
-175 44z"/>
<path d="M2922 1084 c-28 -14 -62 -58 -62 -79 0 -12 81 -4 109 13 30 16 32 16
62 0 18 -11 51 -18 80 -18 l49 0 0 45 0 45 -45 0 c-33 0 -45 -4 -45 -15 0 -19
-9 -19 -30 0 -27 24 -80 28 -118 9z"/>
<path d="M3373 1083 c-18 -8 -33 -19 -33 -24 0 -5 -4 -9 -10 -9 -5 0 -10 9
-10 20 0 17 -7 20 -40 20 l-40 0 0 -46 0 -47 81 6 c44 3 83 7 85 10 3 3 4 23
2 46 l-3 40 -32 -16z"/>
<path d="M3894 1081 c-37 -17 -74 -53 -74 -73 0 -15 78 -8 109 10 30 16 32 16
62 0 31 -18 109 -25 109 -10 0 20 -37 56 -74 73 -52 23 -80 23 -132 0z"/>
<path d="M4214 1084 c-28 -14 -54 -49 -54 -74 0 -6 17 -10 39 -10 30 0 40 4
44 20 3 13 14 20 31 20 15 0 31 -8 38 -20 9 -14 24 -20 50 -20 21 0 38 5 38
11 0 5 -5 7 -12 3 -7 -4 -8 -3 -4 4 11 19 -13 53 -49 68 -44 18 -82 17 -121
-2z"/>
<path d="M4522 1084 c-28 -14 -62 -58 -62 -79 0 -12 81 -4 109 13 30 16 32 16
62 0 18 -11 51 -18 80 -18 l49 0 0 45 0 45 -45 0 c-33 0 -45 -4 -45 -15 0 -19
-9 -19 -30 0 -27 24 -80 28 -118 9z"/>
<path d="M1600 1045 l0 -45 40 0 40 0 0 45 0 45 -40 0 -40 0 0 -45z"/>
<path d="M2221 1044 l-33 -45 47 3 c42 3 52 8 83 46 l35 42 -50 0 c-47 0 -51
-2 -82 -46z"/>
<path d="M1262 573 l-2 -83 38 2 c36 1 36 1 5 5 l-32 4 -4 77 -3 77 -2 -82z"/>
<path d="M1350 646 c0 -2 8 -10 18 -17 15 -13 16 -12 3 4 -13 16 -21 21 -21
13z"/>
<path d="M1488 613 c7 -3 16 -2 19 1 4 3 -2 6 -13 5 -11 0 -14 -3 -6 -6z"/>
<path d="M1968 613 c7 -3 16 -2 19 1 4 3 -2 6 -13 5 -11 0 -14 -3 -6 -6z"/>
<path d="M2064 525 c0 -55 1 -76 3 -47 2 29 2 74 0 100 -2 26 -3 2 -3 -53z"/>
<path d="M2113 613 c9 -2 23 -2 30 0 6 3 -1 5 -18 5 -16 0 -22 -2 -12 -5z"/>
<path d="M2385 599 c-4 -6 -5 -12 -2 -15 2 -3 7 2 10 11 7 17 1 20 -8 4z"/>
<path d="M1701 555 c0 -17 3 -25 7 -18 4 6 32 13 62 16 l55 3 -57 2 c-34 1
-58 7 -61 15 -3 6 -6 -1 -6 -18z"/>
<path d="M1902 555 c0 -16 2 -22 5 -12 2 9 2 23 0 30 -3 6 -5 -1 -5 -18z"/>
<path d="M2221 555 c0 -17 3 -25 7 -18 4 6 32 13 62 16 l55 3 -57 2 c-34 1
-58 7 -61 15 -3 6 -6 -1 -6 -18z"/>
<path d="M1458 553 c18 -2 45 -2 60 0 15 2 0 4 -33 4 -33 0 -45 -2 -27 -4z"/>
<path d="M1376 533 c-6 -14 -5 -15 5 -6 7 7 10 15 7 18 -3 3 -9 -2 -12 -12z"/>
</g>
</svg>
